<mxfile host="65bd71144e">
    <diagram id="ORI2uocreTgAHU7Fqn5_" name="第 1 页">
        <mxGraphModel dx="2057" dy="2263" grid="1" gridSize="10" guides="1" tooltips="1" connect="1" arrows="1" fold="1" page="1" pageScale="1" pageWidth="827" pageHeight="1169" math="0" shadow="0">
            <root>
                <mxCell id="0"/>
                <mxCell id="1" parent="0"/>
                <mxCell id="11" value="UART HC05 蓝牙协议&lt;br&gt;发送八位数据传输&lt;br&gt;四位标志位+四位BCD码" style="shape=callout;whiteSpace=wrap;html=1;perimeter=calloutPerimeter;base=30;" parent="1" vertex="1">
                    <mxGeometry x="80" y="60" width="160" height="120" as="geometry"/>
                </mxCell>
                <mxCell id="13" value="UART HC05 蓝牙协议&lt;br&gt;接收八位数据传输&lt;br&gt;四位标志位+四位BCD码" style="shape=callout;whiteSpace=wrap;html=1;perimeter=calloutPerimeter;base=30;size=30;position=0.31;" parent="1" vertex="1">
                    <mxGeometry x="371" y="60" width="160" height="120" as="geometry"/>
                </mxCell>
                <mxCell id="14" value="0FFFFXXXX0" style="endArrow=classic;html=1;exitX=0;exitY=0;exitDx=160;exitDy=45;exitPerimeter=0;entryX=0;entryY=0;entryDx=0;entryDy=45;entryPerimeter=0;strokeWidth=3;fontSize=13;" parent="1" source="11" target="13" edge="1">
                    <mxGeometry x="-0.084" width="50" height="50" relative="1" as="geometry">
                        <mxPoint x="440" y="410" as="sourcePoint"/>
                        <mxPoint x="490" y="360" as="targetPoint"/>
                        <mxPoint as="offset"/>
                    </mxGeometry>
                </mxCell>
                <mxCell id="27" value="" style="edgeStyle=none;html=1;strokeWidth=3;fontSize=13;" parent="1" source="15" target="26" edge="1">
                    <mxGeometry relative="1" as="geometry"/>
                </mxCell>
                <mxCell id="15" value="数据接收" style="rounded=1;whiteSpace=wrap;html=1;fontSize=13;" parent="1" vertex="1">
                    <mxGeometry x="460" y="180" width="120" height="60" as="geometry"/>
                </mxCell>
                <mxCell id="32" value="数字按键" style="edgeStyle=none;html=1;strokeWidth=3;fontSize=13;" parent="1" source="26" target="31" edge="1">
                    <mxGeometry relative="1" as="geometry"/>
                </mxCell>
                <mxCell id="38" value="D:删除操作" style="edgeStyle=none;html=1;strokeWidth=3;fontSize=13;" parent="1" source="26" target="37" edge="1">
                    <mxGeometry relative="1" as="geometry"/>
                </mxCell>
                <mxCell id="26" value="BCD码&lt;br&gt;功能判断" style="rhombus;whiteSpace=wrap;html=1;fontSize=13;rounded=1;" parent="1" vertex="1">
                    <mxGeometry x="450" y="310" width="140" height="80" as="geometry"/>
                </mxCell>
                <mxCell id="34" value="小于六位" style="edgeStyle=none;html=1;strokeWidth=3;fontSize=13;" parent="1" source="31" target="33" edge="1">
                    <mxGeometry relative="1" as="geometry"/>
                </mxCell>
                <mxCell id="36" value="大于六位" style="edgeStyle=none;html=1;strokeWidth=3;fontSize=13;" parent="1" source="31" target="35" edge="1">
                    <mxGeometry relative="1" as="geometry"/>
                </mxCell>
                <mxCell id="31" value="计数器移位判断" style="rhombus;whiteSpace=wrap;html=1;fontSize=13;rounded=1;" parent="1" vertex="1">
                    <mxGeometry x="450" y="450" width="140" height="80" as="geometry"/>
                </mxCell>
                <mxCell id="33" value="左移进入密码寄存器" style="whiteSpace=wrap;html=1;fontSize=13;rounded=1;" parent="1" vertex="1">
                    <mxGeometry x="460" y="585" width="120" height="60" as="geometry"/>
                </mxCell>
                <mxCell id="35" value="不做处理" style="whiteSpace=wrap;html=1;fontSize=13;rounded=1;" parent="1" vertex="1">
                    <mxGeometry x="670" y="460" width="120" height="60" as="geometry"/>
                </mxCell>
                <mxCell id="37" value="移位减一&lt;br&gt;密码寄存器右移4位" style="whiteSpace=wrap;html=1;fontSize=13;rounded=1;" parent="1" vertex="1">
                    <mxGeometry x="670" y="320" width="120" height="60" as="geometry"/>
                </mxCell>
                <mxCell id="39" value="" style="endArrow=classic;html=1;strokeWidth=3;fontSize=13;" parent="1" edge="1">
                    <mxGeometry relative="1" as="geometry">
                        <mxPoint x="240" y="130" as="sourcePoint"/>
                        <mxPoint x="370" y="130" as="targetPoint"/>
                    </mxGeometry>
                </mxCell>
                <mxCell id="40" value="" style="shape=message;html=1;outlineConnect=0;fontSize=13;" parent="39" vertex="1">
                    <mxGeometry width="20" height="14" relative="1" as="geometry">
                        <mxPoint x="-10" y="-7" as="offset"/>
                    </mxGeometry>
                </mxCell>
                <mxCell id="41" value="" style="aspect=fixed;html=1;points=[];align=center;image;fontSize=12;image=img/lib/azure2/intune/Device_Compliance.svg;" parent="1" vertex="1">
                    <mxGeometry x="100" y="176" width="62" height="68" as="geometry"/>
                </mxCell>
                <mxCell id="2" value="" style="image;html=1;image=img/lib/clip_art/general/Bluetooth_128x128.png" parent="1" vertex="1">
                    <mxGeometry x="80" y="160" width="40" height="40" as="geometry"/>
                </mxCell>
                <mxCell id="43" value="" style="rounded=0;whiteSpace=wrap;html=1;" vertex="1" parent="1">
                    <mxGeometry x="-80" y="-90" width="120" height="60" as="geometry"/>
                </mxCell>
            </root>
        </mxGraphModel>
    </diagram>
</mxfile>